STARTFONT 2.1
FONT -zevv-peep-Medium-R-Normal--14-130-75-75-C-70-ISO8859-15
SIZE 14 75 75
FONTBOUNDINGBOX 7 14 0 -3
STARTPROPERTIES 29
FONTNAME_REGISTRY ""
FOUNDRY "zevv"
FAMILY_NAME "peep"
WEIGHT_NAME "Medium"
SLANT "R"
SETWIDTH_NAME "Normal"
ADD_STYLE_NAME ""
PIXEL_SIZE 14
POINT_SIZE 130
RESOLUTION_X 75
RESOLUTION_Y 75
SPACING "C"
AVERAGE_WIDTH 70
CHARSET_REGISTRY "ISO8859"
CHARSET_ENCODING "15"
COPYRIGHT "Zevv"
WEIGHT 100
RESOLUTION 75
X_HEIGHT 7
FIGURE_WIDTH 7
QUAD_WIDTH 7
FONT_ASCENT 11
FONT_DESCENT 3
RELATIVE_WEIGHT 50
RELATIVE_SETWIDTH 50
CAP_HEIGHT 10
UNDERLINE_POSITION -2
UNDERLINE_THICKNESS 1
_GBDFED_INFO "Edited with gbdfed 1.3."
ENDPROPERTIES
CHARS 256
STARTCHAR U+00a4 currency sign
ENCODING 164
SWIDTH 548 0
DWIDTH 7 0
BBX 7 14 0 -3
BITMAP
00
0E
11
20
7E
20
7C
20
20
11
0E
00
00
00
ENDCHAR
STARTCHAR U+0053 latin capital letter S
ENCODING 166
SWIDTH 548 0
DWIDTH 7 0
BBX 7 14 0 -3
BITMAP
00
24
18
00
3C
42
40
40
3C
02
02
42
3C
00
ENDCHAR
STARTCHAR U+0073 latin small letter s
ENCODING 168
SWIDTH 548 0
DWIDTH 7 0
BBX 7 14 0 -3
BITMAP
00
24
18
00
3C
42
40
3C
02
42
3C
00
00
00
ENDCHAR
STARTCHAR U+005a latin capital letter Z
ENCODING 180
SWIDTH 548 0
DWIDTH 7 0
BBX 7 14 0 -3
BITMAP
24
18
00
7E
02
04
08
10
20
40
7E
00
00
00
ENDCHAR
STARTCHAR U+007a latin small letter z
ENCODING 184
SWIDTH 548 0
DWIDTH 7 0
BBX 7 14 0 -3
BITMAP
00
24
18
00
7E
02
04
08
10
20
7E
00
00
00
ENDCHAR
STARTCHAR solid box
ENCODING 0
SWIDTH 480 0
DWIDTH 7 0
BBX 7 14 0 -3
BITMAP
00
7E
7E
7E
7E
7E
7E
7E
7E
7E
7E
7E
7E
7E
ENDCHAR
STARTCHAR diamond
ENCODING 1
SWIDTH 480 0
DWIDTH 7 0
BBX 7 14 0 -3
BITMAP
00
00
00
08
1C
3E
7E
3E
1C
08
00
00
00
00
ENDCHAR
STARTCHAR dithered box
ENCODING 2
SWIDTH 480 0
DWIDTH 7 0
BBX 7 14 0 -3
BITMAP
54
AA
54
AA
54
AA
54
AA
54
AA
54
AA
54
00
ENDCHAR
STARTCHAR horizontal tab visible control
ENCODING 3
SWIDTH 480 0
DWIDTH 7 0
BBX 7 14 0 -3
BITMAP
44
44
7C
44
44
44
00
1E
04
04
04
04
04
00
ENDCHAR
STARTCHAR form feed visible control
ENCODING 4
SWIDTH 480 0
DWIDTH 7 0
BBX 7 14 0 -3
BITMAP
7C
40
78
40
40
40
00
1E
10
1E
10
10
10
00
ENDCHAR
STARTCHAR carriage return visible control
ENCODING 5
SWIDTH 480 0
DWIDTH 7 0
BBX 7 14 0 -3
BITMAP
38
44
40
40
44
38
00
1E
10
10
1E
12
10
00
ENDCHAR
STARTCHAR line feed visible control
ENCODING 6
SWIDTH 480 0
DWIDTH 7 0
BBX 7 14 0 -3
BITMAP
40
40
40
40
40
7C
00
1E
10
1E
10
10
10
00
ENDCHAR
STARTCHAR degree sign
ENCODING 7
SWIDTH 480 0
DWIDTH 7 0
BBX 7 14 0 -3
BITMAP
00
38
44
44
44
38
00
00
00
00
00
00
00
00
ENDCHAR
STARTCHAR plus-minus-sign
ENCODING 8
SWIDTH 480 0
DWIDTH 7 0
BBX 7 14 0 -3
BITMAP
00
00
00
08
08
08
7E
08
08
08
00
7E
00
00
ENDCHAR
STARTCHAR null visible control
ENCODING 9
SWIDTH 480 0
DWIDTH 7 0
BBX 7 14 0 -3
BITMAP
44
64
54
54
4C
44
00
10
10
10
10
10
1E
00
ENDCHAR
STARTCHAR vertical tab visible control
ENCODING 10
SWIDTH 480 0
DWIDTH 7 0
BBX 7 14 0 -3
BITMAP
44
44
44
28
28
10
00
1E
04
04
04
04
04
00
ENDCHAR
STARTCHAR box drawing lower right corner
ENCODING 11
SWIDTH 480 0
DWIDTH 7 0
BBX 7 14 0 -3
BITMAP
00
10
10
10
10
10
10
10
F0
00
00
00
00
00
ENDCHAR
STARTCHAR box drawing upper right corner
ENCODING 12
SWIDTH 480 0
DWIDTH 7 0
BBX 7 14 0 -3
BITMAP
00
00
00
00
00
00
F0
10
10
10
10
10
10
00
ENDCHAR
STARTCHAR box drawing upper left corner
ENCODING 13
SWIDTH 480 0
DWIDTH 7 0
BBX 7 14 0 -3
BITMAP
00
00
00
00
00
00
1E
10
10
10
10
10
10
00
ENDCHAR
STARTCHAR box drawing lower left corner
ENCODING 14
SWIDTH 480 0
DWIDTH 7 0
BBX 7 14 0 -3
BITMAP
00
10
10
10
10
10
10
10
1E
00
00
00
00
00
ENDCHAR
STARTCHAR box drawing cross
ENCODING 15
SWIDTH 480 0
DWIDTH 7 0
BBX 7 14 0 -3
BITMAP
00
10
10
10
10
10
10
10
FE
10
10
10
10
10
ENDCHAR
STARTCHAR box drawing horizontal line high
ENCODING 16
SWIDTH 480 0
DWIDTH 7 0
BBX 7 14 0 -3
BITMAP
FE
00
00
00
00
00
00
00
00
00
00
00
00
00
ENDCHAR
STARTCHAR box drawing horizontal line medium high
ENCODING 17
SWIDTH 480 0
DWIDTH 7 0
BBX 7 14 0 -3
BITMAP
00
00
00
FE
00
00
00
00
00
00
00
00
00
00
ENDCHAR
STARTCHAR box drawing horizontal line middle
ENCODING 18
SWIDTH 480 0
DWIDTH 7 0
BBX 7 14 0 -3
BITMAP
00
00
00
00
00
00
FE
00
00
00
00
00
00
00
ENDCHAR
STARTCHAR box drawing horizontal line medium low
ENCODING 19
SWIDTH 480 0
DWIDTH 7 0
BBX 7 14 0 -3
BITMAP
00
00
00
00
00
00
00
00
00
FE
00
00
00
00
ENDCHAR
STARTCHAR box drawing horizontal line low
ENCODING 20
SWIDTH 480 0
DWIDTH 7 0
BBX 7 14 0 -3
BITMAP
00
00
00
00
00
00
00
00
00
00
00
00
FE
00
ENDCHAR
STARTCHAR box drawing left tee
ENCODING 21
SWIDTH 480 0
DWIDTH 7 0
BBX 7 14 0 -3
BITMAP
00
10
10
10
10
10
10
10
1E
10
10
10
10
10
ENDCHAR
STARTCHAR box drawing right tee
ENCODING 22
SWIDTH 480 0
DWIDTH 7 0
BBX 7 14 0 -3
BITMAP
00
10
10
10
10
10
10
10
F0
10
10
10
10
10
ENDCHAR
STARTCHAR box drawing lower tee
ENCODING 23
SWIDTH 480 0
DWIDTH 7 0
BBX 7 14 0 -3
BITMAP
00
10
10
10
10
10
10
10
FE
00
00
00
00
00
ENDCHAR
STARTCHAR box drawing upper tee
ENCODING 24
SWIDTH 480 0
DWIDTH 7 0
BBX 7 14 0 -3
BITMAP
00
00
00
00
00
00
FE
10
10
10
10
10
10
00
ENDCHAR
STARTCHAR box drawing vertical line
ENCODING 25
SWIDTH 480 0
DWIDTH 7 0
BBX 7 14 0 -3
BITMAP
00
10
10
10
10
10
10
10
10
10
10
10
10
10
ENDCHAR
STARTCHAR less-than-or-equal sign
ENCODING 26
SWIDTH 480 0
DWIDTH 7 0
BBX 7 14 0 -3
BITMAP
00
04
08
10
20
40
20
10
08
04
00
7E
00
00
ENDCHAR
STARTCHAR greater-than-or-equal sign
ENCODING 27
SWIDTH 480 0
DWIDTH 7 0
BBX 7 14 0 -3
BITMAP
00
20
10
08
04
02
04
08
10
20
00
7E
00
00
ENDCHAR
STARTCHAR greek small letter pi
ENCODING 28
SWIDTH 480 0
DWIDTH 7 0
BBX 7 14 0 -3
BITMAP
00
00
00
00
7E
24
24
24
24
24
22
00
00
00
ENDCHAR
STARTCHAR not-equal sign
ENCODING 29
SWIDTH 480 0
DWIDTH 7 0
BBX 7 14 0 -3
BITMAP
00
00
00
02
04
7E
08
10
7E
20
40
00
00
00
ENDCHAR
STARTCHAR pound sign
ENCODING 30
SWIDTH 480 0
DWIDTH 7 0
BBX 7 14 0 -3
BITMAP
00
1C
22
20
20
20
78
20
20
20
7E
00
00
00
ENDCHAR
STARTCHAR middle dot
ENCODING 31
SWIDTH 480 0
DWIDTH 7 0
BBX 7 14 0 -3
BITMAP
00
00
00
00
00
10
38
10
00
00
00
00
00
00
ENDCHAR
STARTCHAR U+0020 space
ENCODING 32
SWIDTH 480 0
DWIDTH 7 0
BBX 7 14 0 -3
BITMAP
00
00
00
00
00
00
00
00
00
00
00
00
00
00
ENDCHAR
STARTCHAR U+0021 exclamation mark
ENCODING 33
SWIDTH 480 0
DWIDTH 7 0
BBX 7 14 0 -3
BITMAP
00
10
10
10
10
10
10
10
00
10
10
00
00
00
ENDCHAR
STARTCHAR U+0022 quotation mark
ENCODING 34
SWIDTH 480 0
DWIDTH 7 0
BBX 7 14 0 -3
BITMAP
00
28
28
28
28
00
00
00
00
00
00
00
00
00
ENDCHAR
STARTCHAR U+0023 number sign
ENCODING 35
SWIDTH 480 0
DWIDTH 7 0
BBX 7 14 0 -3
BITMAP
00
00
24
24
7E
24
24
7E
24
24
00
00
00
00
ENDCHAR
STARTCHAR U+0024 dollar sign
ENCODING 36
SWIDTH 480 0
DWIDTH 7 0
BBX 7 14 0 -3
BITMAP
00
00
10
3C
50
50
38
14
14
78
10
00
00
00
ENDCHAR
STARTCHAR U+0025 percent sign
ENCODING 37
SWIDTH 480 0
DWIDTH 7 0
BBX 7 14 0 -3
BITMAP
00
22
52
54
28
08
10
14
2A
4A
44
00
00
00
ENDCHAR
STARTCHAR U+0026 ampersand
ENCODING 38
SWIDTH 480 0
DWIDTH 7 0
BBX 7 14 0 -3
BITMAP
00
00
30
48
48
30
30
4A
44
44
3A
00
00
00
ENDCHAR
STARTCHAR U+0027 apostrophe
ENCODING 39
SWIDTH 480 0
DWIDTH 7 0
BBX 7 14 0 -3
BITMAP
00
10
10
10
10
00
00
00
00
00
00
00
00
00
ENDCHAR
STARTCHAR U+0028 left parenthesis
ENCODING 40
SWIDTH 480 0
DWIDTH 7 0
BBX 7 14 0 -3
BITMAP
04
08
10
10
20
20
20
20
20
10
10
08
04
00
ENDCHAR
STARTCHAR U+0029 right parenthesis
ENCODING 41
SWIDTH 480 0
DWIDTH 7 0
BBX 7 14 0 -3
BITMAP
20
10
08
08
04
04
04
04
04
08
08
10
20
00
ENDCHAR
STARTCHAR U+002a asterisk
ENCODING 42
SWIDTH 480 0
DWIDTH 7 0
BBX 7 14 0 -3
BITMAP
00
00
00
00
24
18
7E
18
24
00
00
00
00
00
ENDCHAR
STARTCHAR U+002b plus sign
ENCODING 43
SWIDTH 480 0
DWIDTH 7 0
BBX 7 14 0 -3
BITMAP
00
00
00
08
08
08
3E
08
08
08
00
00
00
00
ENDCHAR
STARTCHAR U+002c comma
ENCODING 44
SWIDTH 480 0
DWIDTH 7 0
BBX 7 14 0 -3
BITMAP
00
00
00
00
00
00
00
00
00
18
30
20
40
00
ENDCHAR
STARTCHAR U+002d hyphen-minus
ENCODING 45
SWIDTH 480 0
DWIDTH 7 0
BBX 7 14 0 -3
BITMAP
00
00
00
00
00
00
7E
00
00
00
00
00
00
00
ENDCHAR
STARTCHAR U+002e period
ENCODING 46
SWIDTH 480 0
DWIDTH 7 0
BBX 7 14 0 -3
BITMAP
00
00
00
00
00
00
00
00
00
10
38
10
00
00
ENDCHAR
STARTCHAR U+002f forward slash
ENCODING 47
SWIDTH 480 0
DWIDTH 7 0
BBX 7 14 0 -3
BITMAP
02
02
04
04
08
08
10
10
20
20
40
40
00
00
ENDCHAR
STARTCHAR U+0030 digit zero
ENCODING 48
SWIDTH 480 0
DWIDTH 7 0
BBX 7 14 0 -3
BITMAP
00
18
24
42
42
4A
52
42
42
24
18
00
00
00
ENDCHAR
STARTCHAR U+0031 digit one
ENCODING 49
SWIDTH 480 0
DWIDTH 7 0
BBX 7 14 0 -3
BITMAP
00
08
18
28
48
08
08
08
08
08
08
00
00
00
ENDCHAR
STARTCHAR U+0032 digit two
ENCODING 50
SWIDTH 480 0
DWIDTH 7 0
BBX 7 14 0 -3
BITMAP
00
3C
42
42
02
04
08
10
20
40
7E
00
00
00
ENDCHAR
STARTCHAR U+0033 digit three
ENCODING 51
SWIDTH 480 0
DWIDTH 7 0
BBX 7 14 0 -3
BITMAP
00
3C
42
02
02
1C
02
02
42
42
3C
00
00
00
ENDCHAR
STARTCHAR U+0034 digit four
ENCODING 52
SWIDTH 480 0
DWIDTH 7 0
BBX 7 14 0 -3
BITMAP
00
0C
14
14
24
24
44
7E
04
04
04
00
00
00
ENDCHAR
STARTCHAR U+0035 digit five
ENCODING 53
SWIDTH 480 0
DWIDTH 7 0
BBX 7 14 0 -3
BITMAP
00
7E
40
40
7C
42
02
02
02
42
3C
00
00
00
ENDCHAR
STARTCHAR U+0036 digit six
ENCODING 54
SWIDTH 480 0
DWIDTH 7 0
BBX 7 14 0 -3
BITMAP
00
3C
42
40
40
5C
62
42
42
42
3C
00
00
00
ENDCHAR
STARTCHAR U+0037 digit seven
ENCODING 55
SWIDTH 480 0
DWIDTH 7 0
BBX 7 14 0 -3
BITMAP
00
7E
02
04
04
08
08
10
10
20
20
00
00
00
ENDCHAR
STARTCHAR U+0038 digit eight
ENCODING 56
SWIDTH 480 0
DWIDTH 7 0
BBX 7 14 0 -3
BITMAP
00
3C
42
42
42
3C
42
42
42
42
3C
00
00
00
ENDCHAR
STARTCHAR U+0039 digit nine
ENCODING 57
SWIDTH 480 0
DWIDTH 7 0
BBX 7 14 0 -3
BITMAP
00
3C
42
42
42
46
3A
02
02
42
3C
00
00
00
ENDCHAR
STARTCHAR U+003a colon
ENCODING 58
SWIDTH 480 0
DWIDTH 7 0
BBX 7 14 0 -3
BITMAP
00
00
00
10
38
10
00
00
00
10
38
10
00
00
ENDCHAR
STARTCHAR U+003b semicolon
ENCODING 59
SWIDTH 480 0
DWIDTH 7 0
BBX 7 14 0 -3
BITMAP
00
00
00
10
38
10
00
00
00
18
30
20
40
00
ENDCHAR
STARTCHAR U+003c less-than sign
ENCODING 60
SWIDTH 480 0
DWIDTH 7 0
BBX 7 14 0 -3
BITMAP
00
00
04
08
10
20
40
20
10
08
04
00
00
00
ENDCHAR
STARTCHAR U+003d equals sign
ENCODING 61
SWIDTH 480 0
DWIDTH 7 0
BBX 7 14 0 -3
BITMAP
00
00
00
00
00
7E
00
00
7E
00
00
00
00
00
ENDCHAR
STARTCHAR U+003e greater-than sign
ENCODING 62
SWIDTH 480 0
DWIDTH 7 0
BBX 7 14 0 -3
BITMAP
00
00
20
10
08
04
02
04
08
10
20
00
00
00
ENDCHAR
STARTCHAR U+003f question mark
ENCODING 63
SWIDTH 480 0
DWIDTH 7 0
BBX 7 14 0 -3
BITMAP
00
78
04
04
08
10
20
20
00
20
20
00
00
00
ENDCHAR
STARTCHAR U+0040 at sign
ENCODING 64
SWIDTH 480 0
DWIDTH 7 0
BBX 7 14 0 -3
BITMAP
00
1C
22
42
4E
52
52
52
4E
20
1C
00
00
00
ENDCHAR
STARTCHAR U+0041 latin capital letter A
ENCODING 65
SWIDTH 480 0
DWIDTH 7 0
BBX 7 14 0 -3
BITMAP
00
3C
42
42
42
42
7E
42
42
42
42
00
00
00
ENDCHAR
STARTCHAR U+0042 latin capital letter B
ENCODING 66
SWIDTH 480 0
DWIDTH 7 0
BBX 7 14 0 -3
BITMAP
00
78
44
44
44
7C
42
42
42
42
7C
00
00
00
ENDCHAR
STARTCHAR U+0043 latin capital letter C
ENCODING 67
SWIDTH 480 0
DWIDTH 7 0
BBX 7 14 0 -3
BITMAP
00
3C
42
42
40
40
40
40
42
42
3C
00
00
00
ENDCHAR
STARTCHAR U+0044 latin capital letter D
ENCODING 68
SWIDTH 480 0
DWIDTH 7 0
BBX 7 14 0 -3
BITMAP
00
78
44
42
42
42
42
42
42
44
78
00
00
00
ENDCHAR
STARTCHAR U+0045 latin capital letter E
ENCODING 69
SWIDTH 480 0
DWIDTH 7 0
BBX 7 14 0 -3
BITMAP
00
7E
40
40
40
7C
40
40
40
40
7E
00
00
00
ENDCHAR
STARTCHAR U+0046 latin capital letter F
ENCODING 70
SWIDTH 480 0
DWIDTH 7 0
BBX 7 14 0 -3
BITMAP
00
7E
40
40
40
7C
40
40
40
40
40
00
00
00
ENDCHAR
STARTCHAR U+0047 latin capital letter G
ENCODING 71
SWIDTH 480 0
DWIDTH 7 0
BBX 7 14 0 -3
BITMAP
00
3C
42
42
40
40
4E
42
42
42
3C
00
00
00
ENDCHAR
STARTCHAR U+0048 latin capital letter H
ENCODING 72
SWIDTH 480 0
DWIDTH 7 0
BBX 7 14 0 -3
BITMAP
00
42
42
42
42
7E
42
42
42
42
42
00
00
00
ENDCHAR
STARTCHAR U+0049 latin capital letter I
ENCODING 73
SWIDTH 480 0
DWIDTH 7 0
BBX 7 14 0 -3
BITMAP
00
7C
10
10
10
10
10
10
10
10
7C
00
00
00
ENDCHAR
STARTCHAR U+004a latin capital letter J
ENCODING 74
SWIDTH 480 0
DWIDTH 7 0
BBX 7 14 0 -3
BITMAP
00
1E
02
02
02
02
02
02
42
42
3C
00
00
00
ENDCHAR
STARTCHAR U+004b latin capital letter K
ENCODING 75
SWIDTH 480 0
DWIDTH 7 0
BBX 7 14 0 -3
BITMAP
00
42
44
48
50
68
48
44
44
42
42
00
00
00
ENDCHAR
STARTCHAR U+004c latin capital letter L
ENCODING 76
SWIDTH 480 0
DWIDTH 7 0
BBX 7 14 0 -3
BITMAP
00
40
40
40
40
40
40
40
40
40
7E
00
00
00
ENDCHAR
STARTCHAR U+004d latin capital letter M
ENCODING 77
SWIDTH 480 0
DWIDTH 7 0
BBX 7 14 0 -3
BITMAP
00
42
66
66
5A
5A
5A
42
42
42
42
00
00
00
ENDCHAR
STARTCHAR U+004e latin capital letter N
ENCODING 78
SWIDTH 480 0
DWIDTH 7 0
BBX 7 14 0 -3
BITMAP
00
42
62
62
52
52
4A
4A
46
46
42
00
00
00
ENDCHAR
STARTCHAR U+004f latin capital letter O
ENCODING 79
SWIDTH 480 0
DWIDTH 7 0
BBX 7 14 0 -3
BITMAP
00
3C
42
42
42
42
42
42
42
42
3C
00
00
00
ENDCHAR
STARTCHAR U+0050 latin capital letter P
ENCODING 80
SWIDTH 480 0
DWIDTH 7 0
BBX 7 14 0 -3
BITMAP
00
7C
42
42
42
42
7C
40
40
40
40
00
00
00
ENDCHAR
STARTCHAR U+0051 latin capital letter Q
ENCODING 81
SWIDTH 480 0
DWIDTH 7 0
BBX 7 14 0 -3
BITMAP
00
3C
42
42
42
42
42
42
4A
4A
3C
06
00
00
ENDCHAR
STARTCHAR U+0052 latin capital letter R
ENCODING 82
SWIDTH 480 0
DWIDTH 7 0
BBX 7 14 0 -3
BITMAP
00
7C
42
42
42
42
7C
50
48
44
42
00
00
00
ENDCHAR
STARTCHAR U+0053 latin capital letter S
ENCODING 83
SWIDTH 480 0
DWIDTH 7 0
BBX 7 14 0 -3
BITMAP
00
3C
42
40
40
30
0C
02
02
42
3C
00
00
00
ENDCHAR
STARTCHAR U+0054 latin capital letter T
ENCODING 84
SWIDTH 480 0
DWIDTH 7 0
BBX 7 14 0 -3
BITMAP
00
7E
08
08
08
08
08
08
08
08
08
00
00
00
ENDCHAR
STARTCHAR U+0055 latin capital letter U
ENCODING 85
SWIDTH 480 0
DWIDTH 7 0
BBX 7 14 0 -3
BITMAP
00
42
42
42
42
42
42
42
42
42
3C
00
00
00
ENDCHAR
STARTCHAR U+0056 latin capital letter V
ENCODING 86
SWIDTH 480 0
DWIDTH 7 0
BBX 7 14 0 -3
BITMAP
00
42
42
42
42
42
42
24
24
18
18
00
00
00
ENDCHAR
STARTCHAR U+0057 latin capital letter W
ENCODING 87
SWIDTH 480 0
DWIDTH 7 0
BBX 7 14 0 -3
BITMAP
00
42
42
42
42
42
5A
5A
5A
24
24
00
00
00
ENDCHAR
STARTCHAR U+0058 latin capital letter X
ENCODING 88
SWIDTH 480 0
DWIDTH 7 0
BBX 7 14 0 -3
BITMAP
00
42
42
24
24
18
18
24
24
42
42
00
00
00
ENDCHAR
STARTCHAR U+0059 latin capital letter Y
ENCODING 89
SWIDTH 480 0
DWIDTH 7 0
BBX 7 14 0 -3
BITMAP
00
42
42
42
42
24
18
08
08
08
08
00
00
00
ENDCHAR
STARTCHAR U+005a latin capital letter Z
ENCODING 90
SWIDTH 480 0
DWIDTH 7 0
BBX 7 14 0 -3
BITMAP
00
7E
02
04
04
08
10
10
20
40
7E
00
00
00
ENDCHAR
STARTCHAR U+005b left square bracket
ENCODING 91
SWIDTH 480 0
DWIDTH 7 0
BBX 7 14 0 -3
BITMAP
1E
10
10
10
10
10
10
10
10
10
10
10
1E
00
ENDCHAR
STARTCHAR U+005c backslash
ENCODING 92
SWIDTH 480 0
DWIDTH 7 0
BBX 7 14 0 -3
BITMAP
40
40
20
20
10
10
08
08
04
04
02
02
00
00
ENDCHAR
STARTCHAR U+005d right square bracket
ENCODING 93
SWIDTH 480 0
DWIDTH 7 0
BBX 7 14 0 -3
BITMAP
78
08
08
08
08
08
08
08
08
08
08
08
78
00
ENDCHAR
STARTCHAR U+005e circumflex
ENCODING 94
SWIDTH 480 0
DWIDTH 7 0
BBX 7 14 0 -3
BITMAP
00
18
24
42
00
00
00
00
00
00
00
00
00
00
ENDCHAR
STARTCHAR U+005f underscore
ENCODING 95
SWIDTH 480 0
DWIDTH 7 0
BBX 7 14 0 -3
BITMAP
00
00
00
00
00
00
00
00
00
00
00
00
7E
00
ENDCHAR
STARTCHAR U+0060 grave accent
ENCODING 96
SWIDTH 480 0
DWIDTH 7 0
BBX 7 14 0 -3
BITMAP
00
30
18
08
04
00
00
00
00
00
00
00
00
00
ENDCHAR
STARTCHAR U+0061 latin small letter a
ENCODING 97
SWIDTH 480 0
DWIDTH 7 0
BBX 7 14 0 -3
BITMAP
00
00
00
00
3C
02
3E
42
42
46
3A
00
00
00
ENDCHAR
STARTCHAR U+0062 latin small letter b
ENCODING 98
SWIDTH 480 0
DWIDTH 7 0
BBX 7 14 0 -3
BITMAP
00
40
40
40
5C
62
42
42
42
62
5C
00
00
00
ENDCHAR
STARTCHAR U+0063 latin small letter c
ENCODING 99
SWIDTH 480 0
DWIDTH 7 0
BBX 7 14 0 -3
BITMAP
00
00
00
00
3C
42
40
40
40
42
3C
00
00
00
ENDCHAR
STARTCHAR U+0064 latin small letter d
ENCODING 100
SWIDTH 480 0
DWIDTH 7 0
BBX 7 14 0 -3
BITMAP
00
02
02
02
3A
46
42
42
42
46
3A
00
00
00
ENDCHAR
STARTCHAR U+0065 latin small letter e
ENCODING 101
SWIDTH 480 0
DWIDTH 7 0
BBX 7 14 0 -3
BITMAP
00
00
00
00
3C
42
42
7E
40
40
3E
00
00
00
ENDCHAR
STARTCHAR U+0066 latin small letter f
ENCODING 102
SWIDTH 480 0
DWIDTH 7 0
BBX 7 14 0 -3
BITMAP
00
1C
22
20
20
20
7C
20
20
20
20
00
00
00
ENDCHAR
STARTCHAR U+0067 latin small letter g
ENCODING 103
SWIDTH 480 0
DWIDTH 7 0
BBX 7 14 0 -3
BITMAP
00
00
00
00
3A
46
42
42
46
3A
02
02
42
3C
ENDCHAR
STARTCHAR U+0068 latin small letter h
ENCODING 104
SWIDTH 480 0
DWIDTH 7 0
BBX 7 14 0 -3
BITMAP
00
40
40
40
5C
62
42
42
42
42
42
00
00
00
ENDCHAR
STARTCHAR U+0069 latin small letter i
ENCODING 105
SWIDTH 480 0
DWIDTH 7 0
BBX 7 14 0 -3
BITMAP
00
08
08
00
38
08
08
08
08
08
08
00
00
00
ENDCHAR
STARTCHAR U+006a latin small letter j
ENCODING 106
SWIDTH 480 0
DWIDTH 7 0
BBX 7 14 0 -3
BITMAP
00
04
04
00
1C
04
04
04
04
04
04
44
38
00
ENDCHAR
STARTCHAR U+006b latin small letter k
ENCODING 107
SWIDTH 480 0
DWIDTH 7 0
BBX 7 14 0 -3
BITMAP
00
40
40
40
44
48
50
70
48
44
42
00
00
00
ENDCHAR
STARTCHAR U+006c latin small letter l
ENCODING 108
SWIDTH 480 0
DWIDTH 7 0
BBX 7 14 0 -3
BITMAP
00
20
20
20
20
20
20
20
20
20
1C
00
00
00
ENDCHAR
STARTCHAR U+006d latin small letter m
ENCODING 109
SWIDTH 480 0
DWIDTH 7 0
BBX 7 14 0 -3
BITMAP
00
00
00
00
74
4A
4A
4A
4A
42
42
00
00
00
ENDCHAR
STARTCHAR U+006e latin small letter n
ENCODING 110
SWIDTH 480 0
DWIDTH 7 0
BBX 7 14 0 -3
BITMAP
00
00
00
00
5C
62
42
42
42
42
42
00
00
00
ENDCHAR
STARTCHAR U+006f latin small letter o
ENCODING 111
SWIDTH 480 0
DWIDTH 7 0
BBX 7 14 0 -3
BITMAP
00
00
00
00
3C
42
42
42
42
42
3C
00
00
00
ENDCHAR
STARTCHAR U+0070 latin small letter p
ENCODING 112
SWIDTH 480 0
DWIDTH 7 0
BBX 7 14 0 -3
BITMAP
00
00
00
00
5C
62
42
42
62
5C
40
40
40
00
ENDCHAR
STARTCHAR U+0071 latin small letter q
ENCODING 113
SWIDTH 480 0
DWIDTH 7 0
BBX 7 14 0 -3
BITMAP
00
00
00
00
3A
46
42
42
46
3A
02
02
02
00
ENDCHAR
STARTCHAR U+0072 latin small letter r
ENCODING 114
SWIDTH 480 0
DWIDTH 7 0
BBX 7 14 0 -3
BITMAP
00
00
00
00
5C
62
40
40
40
40
40
00
00
00
ENDCHAR
STARTCHAR U+0073 latin small letter s
ENCODING 115
SWIDTH 480 0
DWIDTH 7 0
BBX 7 14 0 -3
BITMAP
00
00
00
00
3C
42
40
3C
02
42
3C
00
00
00
ENDCHAR
STARTCHAR U+0074 latin small letter t
ENCODING 116
SWIDTH 480 0
DWIDTH 7 0
BBX 7 14 0 -3
BITMAP
00
00
20
20
7C
20
20
20
20
22
1C
00
00
00
ENDCHAR
STARTCHAR U+0075 latin small letter u
ENCODING 117
SWIDTH 480 0
DWIDTH 7 0
BBX 7 14 0 -3
BITMAP
00
00
00
00
42
42
42
42
42
46
3A
00
00
00
ENDCHAR
STARTCHAR U+0076 latin small letter v
ENCODING 118
SWIDTH 480 0
DWIDTH 7 0
BBX 7 14 0 -3
BITMAP
00
00
00
00
42
42
42
24
24
18
18
00
00
00
ENDCHAR
STARTCHAR U+0077 latin small letter w
ENCODING 119
SWIDTH 480 0
DWIDTH 7 0
BBX 7 14 0 -3
BITMAP
00
00
00
00
42
42
4A
4A
4A
5A
24
00
00
00
ENDCHAR
STARTCHAR U+0078 latin small letter x
ENCODING 120
SWIDTH 480 0
DWIDTH 7 0
BBX 7 14 0 -3
BITMAP
00
00
00
00
42
24
18
00
18
24
42
00
00
00
ENDCHAR
STARTCHAR U+0079 latin small letter y
ENCODING 121
SWIDTH 480 0
DWIDTH 7 0
BBX 7 14 0 -3
BITMAP
00
00
00
00
42
42
42
42
46
3A
02
02
42
3C
ENDCHAR
STARTCHAR U+007a latin small letter z
ENCODING 122
SWIDTH 480 0
DWIDTH 7 0
BBX 7 14 0 -3
BITMAP
00
00
00
00
7E
02
04
08
10
20
7E
00
00
00
ENDCHAR
STARTCHAR U+007b left curly brace
ENCODING 123
SWIDTH 480 0
DWIDTH 7 0
BBX 7 14 0 -3
BITMAP
06
08
08
08
08
08
30
08
08
08
08
08
06
00
ENDCHAR
STARTCHAR U+007c vertical bar
ENCODING 124
SWIDTH 480 0
DWIDTH 7 0
BBX 7 14 0 -3
BITMAP
10
10
10
10
10
10
10
10
10
10
10
10
00
00
ENDCHAR
STARTCHAR U+007d right curly brace
ENCODING 125
SWIDTH 480 0
DWIDTH 7 0
BBX 7 14 0 -3
BITMAP
60
10
10
10
10
10
0C
10
10
10
10
10
60
00
ENDCHAR
STARTCHAR U+007e tilde
ENCODING 126
SWIDTH 480 0
DWIDTH 7 0
BBX 7 14 0 -3
BITMAP
00
00
32
4A
44
00
00
00
00
00
00
00
00
00
ENDCHAR
STARTCHAR nil
ENCODING 127
SWIDTH 480 0
DWIDTH 7 0
BBX 7 14 0 -3
BITMAP
7E
42
42
42
42
42
42
42
42
42
42
42
7E
00
ENDCHAR
STARTCHAR nil
ENCODING 128
SWIDTH 480 0
DWIDTH 7 0
BBX 7 14 0 -3
BITMAP
7E
42
42
42
42
42
42
42
42
42
42
42
7E
00
ENDCHAR
STARTCHAR nil
ENCODING 129
SWIDTH 480 0
DWIDTH 7 0
BBX 7 14 0 -3
BITMAP
7E
42
42
42
42
42
42
42
42
42
42
42
7E
00
ENDCHAR
STARTCHAR nil
ENCODING 130
SWIDTH 480 0
DWIDTH 7 0
BBX 7 14 0 -3
BITMAP
7E
42
42
42
42
42
42
42
42
42
42
42
7E
00
ENDCHAR
STARTCHAR nil
ENCODING 131
SWIDTH 480 0
DWIDTH 7 0
BBX 7 14 0 -3
BITMAP
7E
42
42
42
42
42
42
42
42
42
42
42
7E
00
ENDCHAR
STARTCHAR nil
ENCODING 132
SWIDTH 480 0
DWIDTH 7 0
BBX 7 14 0 -3
BITMAP
7E
42
42
42
42
42
42
42
42
42
42
42
7E
00
ENDCHAR
STARTCHAR nil
ENCODING 133
SWIDTH 480 0
DWIDTH 7 0
BBX 7 14 0 -3
BITMAP
7E
42
42
42
42
42
42
42
42
42
42
42
7E
00
ENDCHAR
STARTCHAR nil
ENCODING 134
SWIDTH 480 0
DWIDTH 7 0
BBX 7 14 0 -3
BITMAP
7E
42
42
42
42
42
42
42
42
42
42
42
7E
00
ENDCHAR
STARTCHAR nil
ENCODING 135
SWIDTH 480 0
DWIDTH 7 0
BBX 7 14 0 -3
BITMAP
7E
42
42
42
42
42
42
42
42
42
42
42
7E
00
ENDCHAR
STARTCHAR nil
ENCODING 136
SWIDTH 480 0
DWIDTH 7 0
BBX 7 14 0 -3
BITMAP
7E
42
42
42
42
42
42
42
42
42
42
42
7E
00
ENDCHAR
STARTCHAR nil
ENCODING 137
SWIDTH 480 0
DWIDTH 7 0
BBX 7 14 0 -3
BITMAP
7E
42
42
42
42
42
42
42
42
42
42
42
7E
00
ENDCHAR
STARTCHAR nil
ENCODING 138
SWIDTH 480 0
DWIDTH 7 0
BBX 7 14 0 -3
BITMAP
7E
42
42
42
42
42
42
42
42
42
42
42
7E
00
ENDCHAR
STARTCHAR nil
ENCODING 139
SWIDTH 480 0
DWIDTH 7 0
BBX 7 14 0 -3
BITMAP
7E
42
42
42
42
42
42
42
42
42
42
42
7E
00
ENDCHAR
STARTCHAR nil
ENCODING 140
SWIDTH 480 0
DWIDTH 7 0
BBX 7 14 0 -3
BITMAP
7E
42
42
42
42
42
42
42
42
42
42
42
7E
00
ENDCHAR
STARTCHAR nil
ENCODING 141
SWIDTH 480 0
DWIDTH 7 0
BBX 7 14 0 -3
BITMAP
7E
42
42
42
42
42
42
42
42
42
42
42
7E
00
ENDCHAR
STARTCHAR nil
ENCODING 142
SWIDTH 480 0
DWIDTH 7 0
BBX 7 14 0 -3
BITMAP
7E
42
42
42
42
42
42
42
42
42
42
42
7E
00
ENDCHAR
STARTCHAR nil
ENCODING 143
SWIDTH 480 0
DWIDTH 7 0
BBX 7 14 0 -3
BITMAP
7E
42
42
42
42
42
42
42
42
42
42
42
7E
00
ENDCHAR
STARTCHAR nil
ENCODING 144
SWIDTH 480 0
DWIDTH 7 0
BBX 7 14 0 -3
BITMAP
7E
42
42
42
42
42
42
42
42
42
42
42
7E
00
ENDCHAR
STARTCHAR nil
ENCODING 145
SWIDTH 480 0
DWIDTH 7 0
BBX 7 14 0 -3
BITMAP
7E
42
42
42
42
42
42
42
42
42
42
42
7E
00
ENDCHAR
STARTCHAR nil
ENCODING 146
SWIDTH 480 0
DWIDTH 7 0
BBX 7 14 0 -3
BITMAP
7E
42
42
42
42
42
42
42
42
42
42
42
7E
00
ENDCHAR
STARTCHAR nil
ENCODING 147
SWIDTH 480 0
DWIDTH 7 0
BBX 7 14 0 -3
BITMAP
7E
42
42
42
42
42
42
42
42
42
42
42
7E
00
ENDCHAR
STARTCHAR nil
ENCODING 148
SWIDTH 480 0
DWIDTH 7 0
BBX 7 14 0 -3
BITMAP
7E
42
42
42
42
42
42
42
42
42
42
42
7E
00
ENDCHAR
STARTCHAR nil
ENCODING 149
SWIDTH 480 0
DWIDTH 7 0
BBX 7 14 0 -3
BITMAP
7E
42
42
42
42
42
42
42
42
42
42
42
7E
00
ENDCHAR
STARTCHAR nil
ENCODING 150
SWIDTH 480 0
DWIDTH 7 0
BBX 7 14 0 -3
BITMAP
7E
42
42
42
42
42
42
42
42
42
42
42
7E
00
ENDCHAR
STARTCHAR nil
ENCODING 151
SWIDTH 480 0
DWIDTH 7 0
BBX 7 14 0 -3
BITMAP
7E
42
42
42
42
42
42
42
42
42
42
42
7E
00
ENDCHAR
STARTCHAR nil
ENCODING 152
SWIDTH 480 0
DWIDTH 7 0
BBX 7 14 0 -3
BITMAP
7E
42
42
42
42
42
42
42
42
42
42
42
7E
00
ENDCHAR
STARTCHAR nil
ENCODING 153
SWIDTH 480 0
DWIDTH 7 0
BBX 7 14 0 -3
BITMAP
7E
42
42
42
42
42
42
42
42
42
42
42
7E
00
ENDCHAR
STARTCHAR nil
ENCODING 154
SWIDTH 480 0
DWIDTH 7 0
BBX 7 14 0 -3
BITMAP
7E
42
42
42
42
42
42
42
42
42
42
42
7E
00
ENDCHAR
STARTCHAR nil
ENCODING 155
SWIDTH 480 0
DWIDTH 7 0
BBX 7 14 0 -3
BITMAP
7E
42
42
42
42
42
42
42
42
42
42
42
7E
00
ENDCHAR
STARTCHAR nil
ENCODING 156
SWIDTH 480 0
DWIDTH 7 0
BBX 7 14 0 -3
BITMAP
7E
42
42
42
42
42
42
42
42
42
42
42
7E
00
ENDCHAR
STARTCHAR nil
ENCODING 157
SWIDTH 480 0
DWIDTH 7 0
BBX 7 14 0 -3
BITMAP
7E
42
42
42
42
42
42
42
42
42
42
42
7E
00
ENDCHAR
STARTCHAR nil
ENCODING 158
SWIDTH 480 0
DWIDTH 7 0
BBX 7 14 0 -3
BITMAP
7E
42
42
42
42
42
42
42
42
42
42
42
7E
00
ENDCHAR
STARTCHAR nil
ENCODING 159
SWIDTH 480 0
DWIDTH 7 0
BBX 7 14 0 -3
BITMAP
7E
42
42
42
42
42
42
42
42
42
42
42
7E
00
ENDCHAR
STARTCHAR U+00a0 no-break space
ENCODING 160
SWIDTH 480 0
DWIDTH 7 0
BBX 7 14 0 -3
BITMAP
00
00
00
00
00
00
00
00
00
00
00
00
00
00
ENDCHAR
STARTCHAR U+00a1 inverted exclamation mark
ENCODING 161
SWIDTH 480 0
DWIDTH 7 0
BBX 7 14 0 -3
BITMAP
00
00
00
00
08
08
00
08
08
08
08
08
08
00
ENDCHAR
STARTCHAR U+00a2 cent sign
ENCODING 162
SWIDTH 480 0
DWIDTH 7 0
BBX 7 14 0 -3
BITMAP
00
00
08
3C
4A
48
48
48
4A
3C
08
00
00
00
ENDCHAR
STARTCHAR U+00a3 pound sign
ENCODING 163
SWIDTH 480 0
DWIDTH 7 0
BBX 7 14 0 -3
BITMAP
00
1C
22
20
20
20
78
20
20
20
7E
00
00
00
ENDCHAR
STARTCHAR U+00a5 yen sign
ENCODING 165
SWIDTH 480 0
DWIDTH 7 0
BBX 7 14 0 -3
BITMAP
00
44
44
28
28
10
7C
10
7C
10
10
00
00
00
ENDCHAR
STARTCHAR U+00a7 section sign
ENCODING 167
SWIDTH 480 0
DWIDTH 7 0
BBX 7 14 0 -3
BITMAP
00
3C
40
40
38
44
44
44
38
04
04
78
00
00
ENDCHAR
STARTCHAR U+00a9 copyright sign
ENCODING 169
SWIDTH 480 0
DWIDTH 7 0
BBX 7 14 0 -3
BITMAP
38
44
82
9A
A2
A2
A2
9A
82
44
38
00
00
00
ENDCHAR
STARTCHAR U+00aa feminine ordinal indicator
ENCODING 170
SWIDTH 480 0
DWIDTH 7 0
BBX 7 14 0 -3
BITMAP
00
38
04
3C
44
4C
34
00
7C
00
00
00
00
00
ENDCHAR
STARTCHAR U+00ab left-pointing double angle quotation mark
ENCODING 171
SWIDTH 480 0
DWIDTH 7 0
BBX 7 14 0 -3
BITMAP
00
00
00
00
0A
14
28
50
28
14
0A
00
00
00
ENDCHAR
STARTCHAR U+00ac not sign
ENCODING 172
SWIDTH 480 0
DWIDTH 7 0
BBX 7 14 0 -3
BITMAP
00
00
00
00
00
00
7E
02
02
02
00
00
00
00
ENDCHAR
STARTCHAR U+00ad soft hyphen
ENCODING 173
SWIDTH 480 0
DWIDTH 7 0
BBX 7 14 0 -3
BITMAP
00
00
00
00
00
00
3C
00
00
00
00
00
00
00
ENDCHAR
STARTCHAR U+00ae registered sign
ENCODING 174
SWIDTH 480 0
DWIDTH 7 0
BBX 7 14 0 -3
BITMAP
38
44
82
AA
B2
A2
A2
A2
82
44
38
00
00
00
ENDCHAR
STARTCHAR U+00af macron
ENCODING 175
SWIDTH 480 0
DWIDTH 7 0
BBX 7 14 0 -3
BITMAP
00
7E
00
00
00
00
00
00
00
00
00
00
00
00
ENDCHAR
STARTCHAR U+00b0 degree sign
ENCODING 176
SWIDTH 480 0
DWIDTH 7 0
BBX 7 14 0 -3
BITMAP
00
38
44
44
44
38
00
00
00
00
00
00
00
00
ENDCHAR
STARTCHAR U+00b1 plus-minus sign
ENCODING 177
SWIDTH 480 0
DWIDTH 7 0
BBX 7 14 0 -3
BITMAP
00
00
00
08
08
08
7E
08
08
08
00
7E
00
00
ENDCHAR
STARTCHAR U+00b2 superscript two
ENCODING 178
SWIDTH 480 0
DWIDTH 7 0
BBX 7 14 0 -3
BITMAP
38
44
08
10
20
7C
00
00
00
00
00
00
00
00
ENDCHAR
STARTCHAR U+00b3 superscript three
ENCODING 179
SWIDTH 480 0
DWIDTH 7 0
BBX 7 14 0 -3
BITMAP
7C
08
18
04
44
38
00
00
00
00
00
00
00
00
ENDCHAR
STARTCHAR U+00b5 micro sign
ENCODING 181
SWIDTH 480 0
DWIDTH 7 0
BBX 7 14 0 -3
BITMAP
00
00
00
00
44
44
44
44
4C
7A
40
40
00
00
ENDCHAR
STARTCHAR U+00b6 pilcrow sign
ENCODING 182
SWIDTH 480 0
DWIDTH 7 0
BBX 7 14 0 -3
BITMAP
00
3E
68
48
48
68
38
08
08
08
08
00
00
00
ENDCHAR
STARTCHAR U+00b7 middle dot
ENCODING 183
SWIDTH 480 0
DWIDTH 7 0
BBX 7 14 0 -3
BITMAP
00
00
00
00
00
10
38
10
00
00
00
00
00
00
ENDCHAR
STARTCHAR U+00b9 superscript one
ENCODING 185
SWIDTH 480 0
DWIDTH 7 0
BBX 7 14 0 -3
BITMAP
08
18
28
08
08
08
00
00
00
00
00
00
00
00
ENDCHAR
STARTCHAR U+00ba masculine ordinal indicator
ENCODING 186
SWIDTH 480 0
DWIDTH 7 0
BBX 7 14 0 -3
BITMAP
00
38
44
44
44
44
38
00
7C
00
00
00
00
00
ENDCHAR
STARTCHAR U+00bb right-pointing double angle quotation mark
ENCODING 187
SWIDTH 480 0
DWIDTH 7 0
BBX 7 14 0 -3
BITMAP
00
00
00
00
50
28
14
0A
14
28
50
00
00
00
ENDCHAR
STARTCHAR U+00bc vulgar fraction one quarter
ENCODING 188
SWIDTH 480 0
DWIDTH 7 0
BBX 7 14 0 -3
BITMAP
20
60
20
20
20
20
02
06
0A
12
1E
02
00
00
ENDCHAR
STARTCHAR U+00bd vulgar fraction one half
ENCODING 189
SWIDTH 480 0
DWIDTH 7 0
BBX 7 14 0 -3
BITMAP
20
60
20
20
20
20
0C
12
02
04
08
1E
00
00
ENDCHAR
STARTCHAR U+00be vulgar fraction three quarters
ENCODING 190
SWIDTH 480 0
DWIDTH 7 0
BBX 7 14 0 -3
BITMAP
78
10
30
08
48
30
02
06
0A
12
1E
02
00
00
ENDCHAR
STARTCHAR U+00bf inverted question mark
ENCODING 191
SWIDTH 480 0
DWIDTH 7 0
BBX 7 14 0 -3
BITMAP
00
00
00
08
08
00
08
08
10
20
40
40
3C
00
ENDCHAR
STARTCHAR U+00c0 latin capital letter A with grave
ENCODING 192
SWIDTH 480 0
DWIDTH 7 0
BBX 7 14 0 -3
BITMAP
30
0C
00
3C
42
42
42
7E
42
42
42
00
00
00
ENDCHAR
STARTCHAR U+00c1 latin capital letter A with acute
ENCODING 193
SWIDTH 480 0
DWIDTH 7 0
BBX 7 14 0 -3
BITMAP
0C
30
00
3C
42
42
42
7E
42
42
42
00
00
00
ENDCHAR
STARTCHAR U+00c2 latin capital letter A with circumflex
ENCODING 194
SWIDTH 480 0
DWIDTH 7 0
BBX 7 14 0 -3
BITMAP
18
24
00
3C
42
42
42
7E
42
42
42
00
00
00
ENDCHAR
STARTCHAR U+00c3 latin capital letter A with tilde
ENCODING 195
SWIDTH 480 0
DWIDTH 7 0
BBX 7 14 0 -3
BITMAP
32
4C
00
3C
42
42
42
7E
42
42
42
00
00
00
ENDCHAR
STARTCHAR U+00c4 latin capital letter A with diaresis
ENCODING 196
SWIDTH 480 0
DWIDTH 7 0
BBX 7 14 0 -3
BITMAP
24
24
00
3C
42
42
42
7E
42
42
42
00
00
00
ENDCHAR
STARTCHAR U+00c5 latin capital letter A with ring above
ENCODING 197
SWIDTH 480 0
DWIDTH 7 0
BBX 7 14 0 -3
BITMAP
18
24
18
3C
42
42
42
7E
42
42
42
00
00
00
ENDCHAR
STARTCHAR U+00c6 latin capital ligature AE
ENCODING 198
SWIDTH 480 0
DWIDTH 7 0
BBX 7 14 0 -3
BITMAP
00
3E
48
48
48
4E
78
48
48
48
4E
00
00
00
ENDCHAR
STARTCHAR U+00c7 latin capital letter C with cedilla
ENCODING 199
SWIDTH 480 0
DWIDTH 7 0
BBX 7 14 0 -3
BITMAP
00
3C
42
42
40
40
40
40
42
42
3C
08
30
00
ENDCHAR
STARTCHAR U+00c8 latin capital letter E with grave
ENCODING 200
SWIDTH 480 0
DWIDTH 7 0
BBX 7 14 0 -3
BITMAP
30
0C
00
7E
40
40
7C
40
40
40
7E
00
00
00
ENDCHAR
STARTCHAR U+00c9 latin capital letter E with acute
ENCODING 201
SWIDTH 480 0
DWIDTH 7 0
BBX 7 14 0 -3
BITMAP
0C
30
00
7E
40
40
7C
40
40
40
7E
00
00
00
ENDCHAR
STARTCHAR U+00ca latin capital letter E with circumflex
ENCODING 202
SWIDTH 480 0
DWIDTH 7 0
BBX 7 14 0 -3
BITMAP
18
24
00
7E
40
40
7C
40
40
40
7E
00
00
00
ENDCHAR
STARTCHAR U+00cb latin capital letter E with diaresis
ENCODING 203
SWIDTH 480 0
DWIDTH 7 0
BBX 7 14 0 -3
BITMAP
24
24
00
7E
40
40
7C
40
40
40
7E
00
00
00
ENDCHAR
STARTCHAR U+00cc latin capital letter I with grave
ENCODING 204
SWIDTH 480 0
DWIDTH 7 0
BBX 7 14 0 -3
BITMAP
60
18
00
7C
10
10
10
10
10
10
7C
00
00
00
ENDCHAR
STARTCHAR U+00cd latin capital letter I with acute
ENCODING 205
SWIDTH 480 0
DWIDTH 7 0
BBX 7 14 0 -3
BITMAP
0C
30
00
7C
10
10
10
10
10
10
7C
00
00
00
ENDCHAR
STARTCHAR U+00ce latin capital letter I with circumflex
ENCODING 206
SWIDTH 480 0
DWIDTH 7 0
BBX 7 14 0 -3
BITMAP
18
24
00
7C
10
10
10
10
10
10
7C
00
00
00
ENDCHAR
STARTCHAR U+00cf latin capital letter I with diaresis
ENCODING 207
SWIDTH 480 0
DWIDTH 7 0
BBX 7 14 0 -3
BITMAP
24
24
00
7C
10
10
10
10
10
10
7C
00
00
00
ENDCHAR
STARTCHAR U+00d0 latin capital letter Eth
ENCODING 208
SWIDTH 480 0
DWIDTH 7 0
BBX 7 14 0 -3
BITMAP
00
78
44
42
42
E2
42
42
42
44
78
00
00
00
ENDCHAR
STARTCHAR U+00d1 latin capital letter N with tilde
ENCODING 209
SWIDTH 480 0
DWIDTH 7 0
BBX 7 14 0 -3
BITMAP
32
4C
00
42
62
62
52
4A
46
46
42
00
00
00
ENDCHAR
STARTCHAR U+00d2 latin capital letter O with grave
ENCODING 210
SWIDTH 480 0
DWIDTH 7 0
BBX 7 14 0 -3
BITMAP
30
0C
00
3C
42
42
42
42
42
42
3C
00
00
00
ENDCHAR
STARTCHAR U+00d3 latin capital letter O with acute
ENCODING 211
SWIDTH 480 0
DWIDTH 7 0
BBX 7 14 0 -3
BITMAP
0C
30
00
3C
42
42
42
42
42
42
3C
00
00
00
ENDCHAR
STARTCHAR U+00d4 latin capital letter O with circumflex
ENCODING 212
SWIDTH 480 0
DWIDTH 7 0
BBX 7 14 0 -3
BITMAP
18
24
00
3C
42
42
42
42
42
42
3C
00
00
00
ENDCHAR
STARTCHAR U+00d5 latin capital letter O with tilde
ENCODING 213
SWIDTH 480 0
DWIDTH 7 0
BBX 7 14 0 -3
BITMAP
32
4C
00
3C
42
42
42
42
42
42
3C
00
00
00
ENDCHAR
STARTCHAR U+00d6 latin capital letter O with diaresis
ENCODING 214
SWIDTH 480 0
DWIDTH 7 0
BBX 7 14 0 -3
BITMAP
24
24
00
3C
42
42
42
42
42
42
3C
00
00
00
ENDCHAR
STARTCHAR U+00d7 multiplication sign
ENCODING 215
SWIDTH 480 0
DWIDTH 7 0
BBX 7 14 0 -3
BITMAP
00
00
00
00
42
24
18
18
24
42
00
00
00
00
ENDCHAR
STARTCHAR U+00d8 latin capital letter O with stroke
ENCODING 216
SWIDTH 480 0
DWIDTH 7 0
BBX 7 14 0 -3
BITMAP
02
3C
46
46
4A
4A
52
52
62
62
3C
40
00
00
ENDCHAR
STARTCHAR U+00d9 latin capital letter U with grave
ENCODING 217
SWIDTH 480 0
DWIDTH 7 0
BBX 7 14 0 -3
BITMAP
30
0C
00
42
42
42
42
42
42
42
3C
00
00
00
ENDCHAR
STARTCHAR U+00da latin capital letter U with acute
ENCODING 218
SWIDTH 480 0
DWIDTH 7 0
BBX 7 14 0 -3
BITMAP
0C
30
00
42
42
42
42
42
42
42
3C
00
00
00
ENDCHAR
STARTCHAR U+00db latin capital letter U with circumflex
ENCODING 219
SWIDTH 480 0
DWIDTH 7 0
BBX 7 14 0 -3
BITMAP
18
24
00
42
42
42
42
42
42
42
3C
00
00
00
ENDCHAR
STARTCHAR U+00dc latin capital letter U with diaresis
ENCODING 220
SWIDTH 480 0
DWIDTH 7 0
BBX 7 14 0 -3
BITMAP
24
24
00
42
42
42
42
42
42
42
3C
00
00
00
ENDCHAR
STARTCHAR U+00dd latin capital letter Y with acute
ENCODING 221
SWIDTH 480 0
DWIDTH 7 0
BBX 7 14 0 -3
BITMAP
0C
30
00
42
42
42
22
14
08
08
08
00
00
00
ENDCHAR
STARTCHAR U+00de latin capital letter Thorn
ENCODING 222
SWIDTH 480 0
DWIDTH 7 0
BBX 7 14 0 -3
BITMAP
00
40
40
7C
42
42
42
42
7C
40
40
00
00
00
ENDCHAR
STARTCHAR U+00df latin small letter sharp s
ENCODING 223
SWIDTH 480 0
DWIDTH 7 0
BBX 7 14 0 -3
BITMAP
00
38
44
44
48
48
44
42
42
52
4C
40
00
00
ENDCHAR
STARTCHAR U+00e0 latin small letter a with grave
ENCODING 224
SWIDTH 480 0
DWIDTH 7 0
BBX 7 14 0 -3
BITMAP
00
30
0C
00
3C
02
3E
42
42
46
3A
00
00
00
ENDCHAR
STARTCHAR U+00e1 latin small letter a with acute
ENCODING 225
SWIDTH 480 0
DWIDTH 7 0
BBX 7 14 0 -3
BITMAP
00
0C
30
00
3C
02
3E
42
42
46
3A
00
00
00
ENDCHAR
STARTCHAR U+00e2 latin small letter a with circumflex
ENCODING 226
SWIDTH 480 0
DWIDTH 7 0
BBX 7 14 0 -3
BITMAP
00
18
24
00
3C
02
3E
42
42
46
3A
00
00
00
ENDCHAR
STARTCHAR U+00e3 latin small letter a with tilde
ENCODING 227
SWIDTH 480 0
DWIDTH 7 0
BBX 7 14 0 -3
BITMAP
00
32
4C
00
3C
02
3E
42
42
46
3A
00
00
00
ENDCHAR
STARTCHAR U+00e4 latin small letter a with diaresis
ENCODING 228
SWIDTH 480 0
DWIDTH 7 0
BBX 7 14 0 -3
BITMAP
00
24
24
00
3C
02
3E
42
42
46
3A
00
00
00
ENDCHAR
STARTCHAR U+00e5 latin small letter a with ring above
ENCODING 229
SWIDTH 480 0
DWIDTH 7 0
BBX 7 14 0 -3
BITMAP
18
24
18
00
3C
02
3E
42
42
46
3A
00
00
00
ENDCHAR
STARTCHAR U+00e6 latin small ligature ae
ENCODING 230
SWIDTH 480 0
DWIDTH 7 0
BBX 7 14 0 -3
BITMAP
00
00
00
00
36
08
38
4E
48
48
36
00
00
00
ENDCHAR
STARTCHAR U+00e7 latin small letter c with cedilla
ENCODING 231
SWIDTH 480 0
DWIDTH 7 0
BBX 7 14 0 -3
BITMAP
00
00
00
00
3C
42
40
40
40
42
3C
08
30
00
ENDCHAR
STARTCHAR U+00e8 latin small letter e with grave
ENCODING 232
SWIDTH 480 0
DWIDTH 7 0
BBX 7 14 0 -3
BITMAP
00
30
0C
00
3C
42
42
7E
40
42
3C
00
00
00
ENDCHAR
STARTCHAR U+00e9 latin small letter e with acute
ENCODING 233
SWIDTH 480 0
DWIDTH 7 0
BBX 7 14 0 -3
BITMAP
00
0C
30
00
3C
42
42
7E
40
42
3C
00
00
00
ENDCHAR
STARTCHAR U+00ea latin small letter e with circumflex
ENCODING 234
SWIDTH 480 0
DWIDTH 7 0
BBX 7 14 0 -3
BITMAP
00
18
24
00
3C
42
42
7E
40
42
3C
00
00
00
ENDCHAR
STARTCHAR U+00eb latin small letter e with diaresis
ENCODING 235
SWIDTH 480 0
DWIDTH 7 0
BBX 7 14 0 -3
BITMAP
00
24
24
00
3C
42
42
7E
40
42
3C
00
00
00
ENDCHAR
STARTCHAR U+00ec latin small letter i with grave
ENCODING 236
SWIDTH 480 0
DWIDTH 7 0
BBX 7 14 0 -3
BITMAP
00
60
18
00
38
08
08
08
08
08
08
00
00
00
ENDCHAR
STARTCHAR U+00ed latin small letter i with acute
ENCODING 237
SWIDTH 480 0
DWIDTH 7 0
BBX 7 14 0 -3
BITMAP
00
06
18
00
38
08
08
08
08
08
08
00
00
00
ENDCHAR
STARTCHAR U+00ee latin small letter i with circumflex
ENCODING 238
SWIDTH 480 0
DWIDTH 7 0
BBX 7 14 0 -3
BITMAP
00
18
24
00
38
08
08
08
08
08
08
00
00
00
ENDCHAR
STARTCHAR U+00ef latin small letter i with diaresis
ENCODING 239
SWIDTH 480 0
DWIDTH 7 0
BBX 7 14 0 -3
BITMAP
00
24
24
00
38
08
08
08
08
08
08
00
00
00
ENDCHAR
STARTCHAR U+00f0 latin small letter eth
ENCODING 240
SWIDTH 480 0
DWIDTH 7 0
BBX 7 14 0 -3
BITMAP
40
2C
10
68
04
3C
42
42
42
42
3C
00
00
00
ENDCHAR
STARTCHAR U+00f1 latin small letter n with tilde
ENCODING 241
SWIDTH 480 0
DWIDTH 7 0
BBX 7 14 0 -3
BITMAP
00
32
4C
00
5C
62
42
42
42
42
42
00
00
00
ENDCHAR
STARTCHAR U+00f2 latin small letter o with grave
ENCODING 242
SWIDTH 480 0
DWIDTH 7 0
BBX 7 14 0 -3
BITMAP
00
30
0C
00
3C
42
42
42
42
42
3C
00
00
00
ENDCHAR
STARTCHAR U+00f3 latin small letter o with acute
ENCODING 243
SWIDTH 480 0
DWIDTH 7 0
BBX 7 14 0 -3
BITMAP
00
0C
30
00
3C
42
42
42
42
42
3C
00
00
00
ENDCHAR
STARTCHAR U+00f4 latin small letter o with circumflex
ENCODING 244
SWIDTH 480 0
DWIDTH 7 0
BBX 7 14 0 -3
BITMAP
00
18
24
00
3C
42
42
42
42
42
3C
00
00
00
ENDCHAR
STARTCHAR U+00f5 latin small letter o with tilde
ENCODING 245
SWIDTH 480 0
DWIDTH 7 0
BBX 7 14 0 -3
BITMAP
00
32
4C
00
3C
42
42
42
42
42
3C
00
00
00
ENDCHAR
STARTCHAR U+00f6 latin small letter o with diaresis
ENCODING 246
SWIDTH 480 0
DWIDTH 7 0
BBX 7 14 0 -3
BITMAP
00
24
24
00
3C
42
42
42
42
42
3C
00
00
00
ENDCHAR
STARTCHAR U+00f7 division sign
ENCODING 247
SWIDTH 480 0
DWIDTH 7 0
BBX 7 14 0 -3
BITMAP
00
00
00
08
08
00
7E
00
08
08
00
00
00
00
ENDCHAR
STARTCHAR U+00f8 latin small letter o with stroke
ENCODING 248
SWIDTH 480 0
DWIDTH 7 0
BBX 7 14 0 -3
BITMAP
00
00
00
02
3C
46
4A
5A
52
62
3C
40
00
00
ENDCHAR
STARTCHAR U+00f9 latin small letter u with grave
ENCODING 249
SWIDTH 480 0
DWIDTH 7 0
BBX 7 14 0 -3
BITMAP
00
30
0C
00
42
42
42
42
42
46
3A
00
00
00
ENDCHAR
STARTCHAR U+00fa latin small letter u with acute
ENCODING 250
SWIDTH 480 0
DWIDTH 7 0
BBX 7 14 0 -3
BITMAP
00
0C
30
00
42
42
42
42
42
46
3A
00
00
00
ENDCHAR
STARTCHAR U+00fb latin small letter u with circumflex
ENCODING 251
SWIDTH 480 0
DWIDTH 7 0
BBX 7 14 0 -3
BITMAP
00
18
24
00
42
42
42
42
42
46
3A
00
00
00
ENDCHAR
STARTCHAR U+00fc latin small letter u with diaresis
ENCODING 252
SWIDTH 480 0
DWIDTH 7 0
BBX 7 14 0 -3
BITMAP
00
24
24
00
42
42
42
42
42
46
3A
00
00
00
ENDCHAR
STARTCHAR U+00fd latin small letter y with acute
ENCODING 253
SWIDTH 480 0
DWIDTH 7 0
BBX 7 14 0 -3
BITMAP
00
0C
30
00
42
42
42
42
46
3A
02
42
42
3C
ENDCHAR
STARTCHAR U+00fe latin small letter thorn
ENCODING 254
SWIDTH 480 0
DWIDTH 7 0
BBX 7 14 0 -3
BITMAP
00
40
40
40
5C
62
42
42
42
62
5C
40
40
00
ENDCHAR
STARTCHAR U+00ff latin small letter y with diaresis
ENCODING 255
SWIDTH 480 0
DWIDTH 7 0
BBX 7 14 0 -3
BITMAP
00
24
24
00
42
42
42
42
46
3A
02
02
42
3C
ENDCHAR
ENDFONT
